<svg width="98" height="63" viewBox="0 0 98 63" fill="none" xmlns="http://www.w3.org/2000/svg">
<path d="M52.0083 40.4601C50.2627 40.4601 48.7005 40.0758 47.3128 39.2986C45.9338 38.5214 44.8429 37.4559 44.0487 36.0936C43.2544 34.7312 42.853 33.1855 42.853 31.4651C42.853 29.7447 43.2544 28.1727 44.0487 26.8366C44.8429 25.5004 45.9251 24.4437 47.2953 23.6665C48.6656 22.8893 50.2366 22.505 52.0083 22.505C53.78 22.505 55.316 22.8893 56.7037 23.649C58.0827 24.4088 59.1649 25.4655 59.9504 26.8191C60.7359 28.1727 61.1287 29.7185 61.1287 31.4651C61.1287 33.2117 60.7359 34.7574 59.9504 36.111C59.1649 37.4647 58.0827 38.5214 56.7037 39.2986C55.3248 40.0758 53.7538 40.4601 52.0083 40.4601V40.4601ZM52.0083 37.6743C53.1341 37.6743 54.1465 37.421 55.0455 36.9145C55.9444 36.408 56.6426 35.6831 57.1488 34.74C57.655 33.7968 57.9081 32.7139 57.9081 31.4738C57.9081 30.2337 57.655 29.1246 57.1488 28.2077C56.6426 27.2907 55.9357 26.5746 55.0455 26.0681C54.1465 25.5616 53.1341 25.3083 52.0083 25.3083C50.8824 25.3083 49.8787 25.5616 48.9885 26.0681C48.107 26.5746 47.4001 27.2907 46.8677 28.2077C46.3353 29.1246 46.0735 30.2163 46.0735 31.4738C46.0735 32.7314 46.3353 33.8055 46.8677 34.74C47.4001 35.6831 48.107 36.408 48.9885 36.9145C49.87 37.421 50.8824 37.6743 52.0083 37.6743Z" fill="white"/>
<path d="M66.6009 40.2592V22.6709H69.6556V27.4479L69.3588 26.2515C69.8476 25.0376 70.6592 24.1031 71.8113 23.4656C72.9633 22.8281 74.3772 22.505 76.0529 22.505V25.5878C75.922 25.5703 75.7911 25.5528 75.6689 25.5528H75.3198C73.6179 25.5528 72.2651 26.0593 71.2702 27.0811C70.2752 28.1029 69.7778 29.57 69.7778 31.4913V40.2505H66.5922L66.6009 40.2592Z" fill="white"/>
<path d="M88.1582 39.5344C86.4563 39.5344 84.9377 39.1764 83.5936 38.4603C82.2496 37.7442 81.1935 36.7399 80.408 35.4561C79.6225 34.1724 79.2298 32.6878 79.2298 31.011C79.2298 29.3343 79.6225 27.8235 80.408 26.5484C81.1935 25.2734 82.2583 24.2866 83.5936 23.5792C84.9289 22.8718 86.4476 22.5138 88.1582 22.5138C89.6593 22.5138 91.0296 22.8195 92.2689 23.422C93.5082 24.0333 94.4944 24.9678 95.2363 26.2253C95.9781 27.4829 96.3447 29.081 96.3447 31.0023C96.3447 32.9236 95.9781 34.4868 95.2363 35.7443C94.4944 37.0019 93.5082 37.9538 92.2689 38.5825C91.0296 39.2113 89.6593 39.5257 88.1582 39.5257V39.5344ZM88.5596 46.9051C86.945 46.9051 85.3828 46.6781 83.8642 46.2239C82.3456 45.7698 81.115 45.1236 80.1637 44.2852L81.691 41.8312C82.5114 42.5386 83.5151 43.0975 84.7108 43.508C85.9064 43.9184 87.1545 44.1193 88.4549 44.1193C90.5321 44.1193 92.0594 43.6302 93.0282 42.6609C93.997 41.6915 94.4857 40.2069 94.4857 38.2158V34.4955L94.8174 31.011L94.6515 27.4916V22.6797H97.6713V37.8752C97.6713 40.9754 96.8945 43.2547 95.3498 44.7131C93.805 46.1715 91.5358 46.9051 88.5509 46.9051H88.5596ZM88.5247 36.7486C89.6942 36.7486 90.7328 36.5041 91.6405 36.015C92.5482 35.526 93.2638 34.8535 93.7788 33.989C94.3024 33.1244 94.5555 32.1288 94.5555 31.0023C94.5555 29.8757 94.2937 28.8802 93.7788 28.0156C93.2638 27.151 92.5482 26.4873 91.6405 26.007C90.7328 25.5354 89.6942 25.2909 88.5247 25.2909C87.3552 25.2909 86.3079 25.5267 85.3915 26.007C84.4751 26.4786 83.7507 27.151 83.2358 28.0156C82.7209 28.8802 82.459 29.8757 82.459 31.0023C82.459 32.1288 82.7209 33.1244 83.2358 33.989C83.7594 34.8535 84.4751 35.526 85.3915 36.015C86.3079 36.5041 87.3552 36.7486 88.5247 36.7486Z" fill="white"/>
<path d="M5.30667 12.2263C5.52486 12.663 5.96997 12.9425 6.45872 12.9425C6.94747 12.9425 7.39258 12.663 7.61077 12.2263L12.795 1.86899C12.9957 1.46727 12.9695 0.995686 12.7339 0.611434C12.4982 0.227181 12.0793 0.00012207 11.6342 0.00012207H1.29195C0.846844 0.00012207 0.427917 0.235914 0.192271 0.611434C-0.0433758 0.995686 -0.060831 1.46727 0.131177 1.86899L5.30667 12.2263ZM9.5483 2.5851L6.46745 8.75934L3.38659 2.5851H9.5483V2.5851ZM6.46745 37.9713C8.18679 37.9713 9.82759 37.2901 11.0407 36.0762C12.2539 34.8623 12.9346 33.2118 12.9346 31.5001C12.9346 29.7885 12.2539 28.1379 11.0407 26.924C9.82759 25.7101 8.17806 25.029 6.46745 25.029C4.75683 25.029 3.1073 25.7101 1.89416 26.924C0.681019 28.1379 0.000262606 29.7885 0.000262606 31.5001C0.000262606 33.2118 0.681019 34.8623 1.89416 36.0762C3.1073 37.2901 4.7481 37.9713 6.46745 37.9713V37.9713ZM6.46745 27.6139C7.49731 27.6139 8.48353 28.0244 9.21665 28.7492C9.94105 29.4741 10.3512 30.4696 10.3512 31.5001C10.3512 32.5306 9.94105 33.5175 9.21665 34.251C8.49226 34.9759 7.49731 35.3863 6.46745 35.3863C5.43758 35.3863 4.45136 34.9759 3.71824 34.251C2.99384 33.5262 2.58364 32.5306 2.58364 31.5001C2.58364 30.4696 2.99384 29.4828 3.71824 28.7492C4.44263 28.0244 5.43758 27.6139 6.46745 27.6139ZM1.29195 63.0001H11.6429C12.3586 63.0001 12.9346 62.4237 12.9346 61.7076V51.3503C12.9346 50.6342 12.3586 50.0578 11.6429 50.0578H1.29195C0.576287 50.0578 0.000262606 50.6342 0.000262606 51.3503V61.7076C0.000262606 62.4237 0.576287 63.0001 1.29195 63.0001V63.0001ZM2.58364 52.6428H10.3512V60.4151H2.58364V52.6428V52.6428ZM23.2856 55.2365V32.7926H15.9544C15.2387 32.7926 14.6627 32.2162 14.6627 31.5001C14.6627 30.784 15.2387 30.2076 15.9544 30.2076H23.2856V7.76378H15.9544C15.2387 7.76378 14.6627 7.1874 14.6627 6.47129C14.6627 5.75518 15.2387 5.1788 15.9544 5.1788H24.5773C25.293 5.1788 25.869 5.75518 25.869 6.47129V30.2076H33.2002C33.9159 30.2076 34.4919 30.784 34.4919 31.5001C34.4919 32.2162 33.9159 32.7926 33.2002 32.7926H25.869V56.529C25.869 57.2451 25.293 57.8214 24.5773 57.8214H15.9544C15.2387 57.8214 14.6627 57.2451 14.6627 56.529C14.6627 55.8129 15.2387 55.2365 15.9544 55.2365H23.2856V55.2365Z" fill="white"/>
</svg>
